<svg width="100%" viewBox="0 0 690 330" role="img" xmlns="http://www.w3.org/2000/svg">
  <title>Servix logo</title>
  <defs>
    <linearGradient id="goldGrad" x1="0%" y1="0%" x2="100%" y2="100%">
      <stop offset="0%" stop-color="#D4A843"/>
      <stop offset="100%" stop-color="#C49A2A"/>
    </linearGradient>
    <linearGradient id="bgGrad" x1="0%" y1="0%" x2="0%" y2="100%">
      <stop offset="0%" stop-color="#2A1800"/>
      <stop offset="100%" stop-color="#3D2000"/>
    </linearGradient>
  </defs>
  <rect width="680" height="320" rx="16" fill="url(#bgGrad)"/>
  <g transform="translate(130, 160)">
    <rect x="-28" y="-18" width="56" height="42" rx="3" fill="#E8B87A" opacity="0.9"/>
    <polygon points="-38,-18 0,-54 38,-18" fill="#C0503A" opacity="0.95"/>
    <rect x="-9" y="6" width="18" height="18" rx="2" fill="#A0622A"/>
    <rect x="-24" y="-10" width="14" height="12" rx="2" fill="#6AABCC" opacity="0.85"/>
    <rect x="10" y="-10" width="14" height="12" rx="2" fill="#6AABCC" opacity="0.85"/>
    <rect x="14" y="-54" width="10" height="20" rx="1" fill="#C0503A" opacity="0.9"/>
    <ellipse cx="-46" cy="-4" rx="18" ry="20" fill="#5A9E3A" opacity="0.95"/>
    <ellipse cx="46" cy="4" rx="14" ry="16" fill="#4A8E2A" opacity="0.9"/>
  </g>
  <text x="212" y="148" font-family="Georgia,'Times New Roman',serif" font-size="78" font-weight="700" fill="url(#goldGrad)" letter-spacing="-1">Servix</text>
  <text x="214" y="178" font-family="'Helvetica Neue',Arial,sans-serif" font-size="13" font-weight="400" fill="#C49A2A" opacity="0.8" letter-spacing="4">PREMIUM DOMESTIC STAFFING</text>
  <rect x="214" y="192" width="340" height="1" rx="0.5" fill="#C49A2A" opacity="0.3"/>
</svg>
